FOR ENGLISH, PLEASE SCROLL DOWN!

~~~~~~~~~~~~~~~~~~~~~~~~~~~~~~~~~~~~~~~~~~~~~~~~~~~~~~~~~
VERHAALLIJN:
¯¯¯¯¯¯¯¯¯¯¯¯
Een jaar na haar vlucht uit Camelot, word Morgana gevonden, gehavend en beurs in het woud, ontvoering claimend door bandieten. Oppervlakkig berouwvol en charmant, werkt ze nog steeds voor Morgheuse, voor wie ze tranen verzameld van Pendragon. Deze worden gebruikt om hem te vervloeken en de pop van Mandrake te maken. Deze maakt hem langzaam gek, en als hij begint te hallicuneren, spoken ziend, benadert Morgheuse rivaal Koning Cenred om het gehavende koninkrijk binnen te vallen en als eerste Merlin gevangen te nemen. Deze roept echter de Grote Draak op om hem te bevrijden.

~~~~~~~~~~~~~~~~~~~~~~~~~~~~~~~~~~~~~~~~~~~~~~~~~~~~~~~~~
- Titel: Merlin (2008) Season 3 Episode 2 (NL SUBS) RHoek - 2Lions-Team
- Bron: .avi
- Genre : Fantasy

IMDb: http://www.imdb.com/title/tt1199099/
Officiële website: http://www.bbc.co.uk/merlin/

~~~~~~~~~~~~~~~~~~~~~~~~~~~~~~~~~~~~~~~~~~~~~~~~~~~~~~~~~
STORY LINE:
¯¯¯¯¯¯¯¯¯¯¯
A year after her flight from Camelot, Morgana is found,dishevelled and bruised in the forest,claiming abduction by bandits. Superficially contrite and charming,she is still in league with Morghause,for whom she collects tears shed by Pendragon. These are used to curse him and fashion a doll from mandrake,which Morgana places under his bed.It slowly starts to drive him mad and, as he begins to hallucinate,seeing ghosts,Morghause approaches rival king Cenred to invade the weakened kingdom,having first taken Merlin prisoner. However Merlin summons the Great Dragon to come and free him.

~~~~~~~~~~~~~~~~~~~~~~~~~~~~~~~~~~~~~~~~~~~~~~~~~~~~~~~~~
- Title: Merlin (2008) Season 3 Episode 2 (ENG+NL SUBS) RHoek - 2Lions-Team
- Source: .avi
- Genre : Fantasy

IMDb: http://www.imdb.com/title/tt1199099/
Official website: http://www.bbc.co.uk/merlin/

~~~~~~~~~~~~~~~~~~~~~~~~~~~~~~~~~~~~~~~~~~~~~~~~~~~~~~~~~
VIDEO AND AUDIO INFORMATION
¯¯¯¯¯¯¯¯¯¯¯¯¯¯¯¯¯¯¯¯¯¯¯¯¯¯¯¯¯¯
Format                           : MPEG-PS
File size                        : 1 024 MiB
Duration                         : 24mn 50s
Overall bit rate                 : 5 765 Kbps

Video
ID                               : 224 (0xE0)
Format                           : MPEG Video
Format version                   : Version 2
Format profile                   : Main@Main
Format settings, BVOP            : Yes
Format settings, Matrix          : Default
Format settings, GOP             : M=3, N=13
Duration                         : 24mn 50s
Bit rate mode                    : Variable
Bit rate                         : 5 458 Kbps
Nominal bit rate                 : 9 016 Kbps
Width                            : 720 pixels
Height                           : 576 pixels
Display aspect ratio             : 4:3
Frame rate                       : 25.000 fps
Standard                         : PAL
Color space                      : YUV
Chroma subsampling               : 4:2:0
Bit depth                        : 8 bits
Scan type                        : Progressive
Bits/(Pixel*Frame)               : 0.526
Stream size                      : 969 MiB (95%)

Audio
ID                               : 128 (0x80)
Format                           : AC-3
Format/Info                      : Audio Coding 3
Mode extension                   : CM (complete main)
Duration                         : 24mn 49s
Bit rate mode                    : Constant
Bit rate                         : 192 Kbps
Channel(s)                       : 2 channels
Channel positions                : Front: L R
Sampling rate                    : 48.0 KHz
Bit depth                        : 16 bits
Stream size                      : 34.1 MiB (3%)

Text
ID                               : 32 (0x20)
Format                           : RLE
Format/Info                      : Run-length encoding
Video delay                      : 1s 76ms

*****************************************

Brought to you by
2Lions Team

Meer zien??
Kom dan eens kijken op ons forum
 
http://www.2lions-site.nl

2Lions the site to be for all your Dutch MOVIES and more

******************************************